# xmcd
#
# Track frame offsets: 
#        150
#        9060
#        19323
#        31996
#        50177
#        70634
#        82788
#        97233
#        112199
#        126908
#        141997
#        165160
#        181284
#        197633
#        210239
#
# Disc length: 2947 seconds
#
# Revision: 6
# Processed by: cddbd v1.5.2PL0 Copyright (c) Steve Scherf et al.
# Submitted via: ExactAudioCopy v0.99pb5
#
DISCID=c40b810f
DTITLE=Various Artist - Classic Country - TL XXD-02-CTC - Home For Christmas 
DTITLE=CD 1
DYEAR=2002
DGENRE=Country
TTITLE0=Dolly Parton - Jingle bells
TTITLE1=Alan Jackson - A holly jolly Christmas
TTITLE2=Judds - Santa Claus is comin' to town
TTITLE3=Vince Gill - Have yourself a merry little Christmas
TTITLE4=Steve Wariner - Silent night
TTITLE5=Suzy Boguss - Two-step around the Christmas tree
TTITLE6=Alabama - O little town of Bethlehem
TTITLE7=Joe Diffie - Leroy the Redneck Reindeer
TTITLE8=Tanya Tucker - Christmas to Christmas
TTITLE9=Mavericks - Santa Claus is back in town
TTITLE10=Lee Roy Parnell - Please come home for Christmas
TTITLE11=Lonestar - I'll be home for Christmas
TTITLE12=Toby Keith - All I want for Christmas
TTITLE13=Randy Travis - God rest ye merry gentlemen
TTITLE14=Kathy Mattea - The Christmas song (chestnuts roasting on an o
TTITLE14=pen fire)
EXTD=YEAR: 2002
EXTT0=
EXTT1=
EXTT2=
EXTT3=
EXTT4=
EXTT5=
EXTT6=
EXTT7=
EXTT8=
EXTT9=
EXTT10=
EXTT11=
EXTT12=
EXTT13=
EXTT14=
PLAYORDER=
